<svg width="24" height="24" viewBox="0 0 24 24" fill="none" xmlns="http://www.w3.org/2000/svg"><path d="M18 21H6c-.6 0-1-.4-1-1V4c0-.6.4-1 1-1h12c.6 0 1 .4 1 1v16c0 .6-.4 1-1 1z" stroke="#525A67" stroke-width="2" stroke-miterlimit="10" stroke-linecap="round" stroke-linejoin="round"/><path d="M15 .8H9v2.4h6V.8z" fill="#fff"/><path d="M14.5 1.6v-.5h-5v1.8h5V1.6zM9 .5h6c.215 0 .347.058.413.11A.222.222 0 0 1 15.5.8v2.4c0 .088-.03.144-.087.19-.066.052-.198.11-.413.11H9c-.215 0-.347-.058-.413-.11A.222.222 0 0 1 8.5 3.2V.8c0-.088.03-.144.087-.19C8.653.558 8.785.5 9 .5z" stroke="#525A67"/><path d="M9 8h6m-6 4h6m-6 4h3" stroke="#525A67" stroke-width="2" stroke-miterlimit="10" stroke-linecap="round"/><path fill="#525A67" d="M9 1h5v3H9z"/></svg>