<svg width="24" height="24" viewBox="0 0 24 24" fill="none" xmlns="http://www.w3.org/2000/svg"><circle cx="12" cy="12" r="10" stroke="#525A67" stroke-width="2" stroke-miterlimit="10" stroke-linecap="round" stroke-linejoin="round"/><path fill-rule="evenodd" clip-rule="evenodd" d="M10.818 15.88c0-.33.113-.6.336-.815.225-.213.512-.32.862-.32s.636.107.86.32c.226.214.337.485.337.814 0 .325-.11.592-.329.804-.219.211-.508.317-.868.317s-.65-.106-.868-.317a1.066 1.066 0 0 1-.33-.804zm.25-2.985c.032-.366.112-.676.216-.932.167-.41.474-.812.92-1.209.446-.397.743-.72.89-.97a1.52 1.52 0 0 0 .223-.788c0-.835-.384-1.252-1.153-1.252-.365 0-.657.113-.877.338a1.1 1.1 0 0 0-.212.31c-.185.399-.623.619-1.064.619-.71 0-1.225-.736-.923-1.378.15-.319.358-.597.625-.834.599-.533 1.416-.799 2.45-.799 1.045 0 1.856.253 2.432.758.577.505.866 1.22.866 2.143 0 .418-.094.814-.282 1.187-.186.372-.515.785-.983 1.239l-.598.57a2.03 2.03 0 0 0-.644 1.266s-.101.63-.938.63c-.804 0-.977-.556-.948-.898z" fill="#525A67"/></svg>